<?xml version="1.0" encoding="UTF-8"?>
<!DOCTYPE svg PUBLIC "-//W3C//DTD SVG 1.1//EN" "http://www.w3.org/Graphics/SVG/1.1/DTD/svg11.dtd">
<!-- Creator: CorelDRAW 2021 (64-Bit) -->
<svg xmlns="http://www.w3.org/2000/svg" xml:space="preserve" width="201.371mm" height="30.3224mm" version="1.1" style="shape-rendering:geometricPrecision; text-rendering:geometricPrecision; image-rendering:optimizeQuality; fill-rule:evenodd; clip-rule:evenodd"
viewBox="0 0 20136.06 3032.08"
 xmlns:xlink="http://www.w3.org/1999/xlink"
 xmlns:xodm="http://www.corel.com/coreldraw/odm/2003">
 <defs>
  <style type="text/css">
   <![CDATA[
    .fil0 {fill:#348CD9}
    .fil2 {fill:white}
    .fil3 {fill:#348CD9;fill-rule:nonzero}
    .fil1 {fill:white;fill-rule:nonzero}
   ]]>
  </style>
 </defs>
 <g id="Layer_x0020_1">
  <metadata id="CorelCorpID_0Corel-Layer"/>
  <g id="_2317322541280">
   <g>
    <polygon class="fil0" points="9128.71,0 11790.06,0 11975.43,185.36 11975.43,2846.72 11790.06,3032.08 9128.71,3032.08 8943.35,2846.72 8943.35,185.36 "/>
    <path class="fil1" d="M9554.73 885.43l0.82 1663.88 66.64 66.64 360.26 0 66.63 -66.64 0.77 -1663.88c-60.81,67.92 -149.14,110.67 -247.53,110.67 -98.39,0 -186.72,-42.76 -247.59,-110.67zm1398.96 1663.88l-66.64 66.64 -360.26 0 -66.64 -66.64 0.24 -1697.7 -383.97 0c36.64,-53.46 58.23,-118.09 58.23,-187.84 0,-98.5 -42.94,-186.89 -110.97,-247.71l1281.62 0 58.82 58.82 0 317.92 -58.82 58.81 -352.79 0 1.18 1697.7zm-1151.37 -2133.25c136.78,0 247.7,110.91 247.7,247.71 0,136.79 -110.91,247.71 -247.7,247.71 -136.85,0 -247.71,-110.91 -247.71,-247.71 0,-136.79 110.85,-247.71 247.71,-247.71z"/>
   </g>
   <g>
    <path class="fil2" d="M1473.08 1903.96c0,76.86 -14.09,144.74 -42.27,203.67 -28.19,58.93 -66.62,108.87 -115.28,149.87 -48.68,40.99 -104.18,71.73 -166.52,92.23 -62.35,20.5 -126.81,30.74 -193.43,30.74 -83.69,0 -161.39,-15.37 -233.13,-46.11 -71.73,-30.75 -134.07,-73.87 -187.02,-129.37 -52.94,-55.51 -94.79,-121.26 -125.52,-197.27 -30.75,-76 -46.12,-159.26 -46.12,-249.78 0,-83.7 16.65,-163.11 49.96,-238.26 33.3,-75.15 78.14,-140.9 134.49,-197.27 56.37,-56.36 122.97,-100.76 199.83,-133.21 76.86,-32.45 158.84,-48.68 245.94,-48.68 104.18,0 200.26,18.36 288.21,55.08 87.96,36.73 164.39,84.98 229.29,144.75l0 -384.28c-78.57,-46.12 -164.39,-80.28 -257.47,-102.47 -93.09,-22.21 -186.59,-33.31 -280.53,-33.31 -136.63,0 -264.31,24.34 -383,73.02 -118.7,48.68 -221.61,115.28 -308.7,199.82 -87.11,84.55 -155.85,183.61 -206.24,297.18 -50.38,113.57 -75.57,236.12 -75.57,367.63 0,131.5 23.91,254.48 71.73,368.91 47.83,114.42 113.57,213.91 197.27,298.45 83.69,84.55 182.74,150.72 297.17,198.54 114.42,47.83 237.4,71.74 368.91,71.74 128.09,0 245.94,-20.92 353.53,-62.77 107.6,-41.84 200.26,-104.18 277.97,-187.02 77.72,-82.83 137.91,-185.73 180.61,-308.7 42.7,-122.96 64.05,-266.44 64.05,-430.39l0 -84.55 -783.93 0 0 281.81 445.77 0zm1029.88 753.19l0 -655.84 225.44 0 458.58 655.84 420.15 0 -507.25 -701.95c131.51,-37.58 236.55,-101.19 315.11,-190.86 78.57,-89.67 117.84,-203.67 117.84,-342.01 0,-85.4 -15.37,-162.67 -46.11,-231.85 -30.75,-69.17 -75.15,-128.52 -133.22,-178.05 -58.07,-49.53 -129.79,-87.96 -215.2,-115.28 -85.39,-27.33 -181.89,-40.99 -289.48,-40.99l-704.51 0 0 1801 358.66 0zm0 -937.64l0 -550.81 320.23 0c109.3,0 194.7,22.21 256.19,66.62 61.49,44.4 92.23,112.71 92.23,204.95 0,47.82 -8.97,88.81 -26.9,122.96 -17.93,34.16 -43.13,63.2 -75.58,87.11 -32.45,23.91 -71.31,41.42 -116.56,52.52 -45.26,11.1 -95.21,16.66 -149.87,16.66l-299.73 0zm3153.66 30.74c1.71,-126.38 -21.35,-245.94 -69.17,-358.66 -47.83,-112.72 -114,-211.78 -198.55,-297.17 -84.55,-85.4 -184.45,-152.43 -299.74,-201.11 -115.28,-48.68 -242.1,-73.02 -380.43,-73.02 -138.34,0 -265.16,24.77 -380.44,74.3 -115.28,49.53 -215.63,116.13 -301.02,199.83 -85.4,83.69 -152,182.74 -199.82,297.17 -47.83,114.43 -71.74,236.55 -71.74,366.35 0,129.79 23.91,251.49 71.74,365.06 47.82,113.57 114,212.64 198.54,297.17 84.55,84.55 184.88,151.15 301.02,199.83 116.13,48.68 242.52,73.02 379.15,73.02 136.63,0 263.03,-24.77 379.16,-74.3 116.14,-49.53 216.48,-116.99 301.02,-202.39 84.54,-85.4 150.72,-185.31 198.54,-299.73 47.83,-114.43 71.74,-236.55 71.74,-366.35zm-363.79 10.25c0,83.69 -14.51,162.25 -43.55,235.69 -29.04,73.45 -69.17,137.91 -120.4,193.42 -51.24,55.51 -112.72,99.49 -184.46,131.94 -71.74,32.45 -150.29,48.68 -235.69,48.68 -87.11,0 -166.52,-15.8 -238.26,-47.4 -71.74,-31.6 -133.21,-76.01 -184.45,-133.22 -51.25,-57.21 -91.38,-123.39 -120.41,-198.54 -29.04,-75.15 -43.55,-155.42 -43.55,-240.82 0,-81.98 14.09,-160.12 42.27,-234.41 28.18,-74.3 68.32,-138.77 120.4,-193.43 52.1,-54.65 114,-98.2 185.74,-130.65 71.74,-32.45 150.29,-48.68 235.69,-48.68 87.11,0 166.52,16.66 238.26,49.96 71.74,33.31 133.22,77.72 184.46,133.22 51.24,55.51 91.37,120.4 120.4,194.7 29.04,74.3 43.55,154.14 43.55,239.54zm881.29 -904.34l-379.16 0 203.35 607.48c6.12,2.87 12.09,5.6 17.83,8.18 120.14,53.82 252.45,85.53 384.13,97.58l-226.15 -713.24zm-80.51 892.17l305.94 913.94 320.23 0 285.48 -894.63c-112.17,35.81 -226.27,58.5 -343.81,68.22l-87.7 280.75 -87.43 -275.75c-9.49,-0.22 -18.96,-0.53 -28.44,-0.91 -93.06,-3.79 -184.88,-22.64 -272.55,-53.87 -31.15,-11.1 -61.77,-23.74 -91.75,-37.75zm1120.46 -63.39l317.83 977.33 317.67 0 516.42 -1555.89 -176.42 -146.85c-48.04,52.56 -98.11,103.6 -149.2,152.94 -18.65,18 -37.5,35.82 -56.55,53.42l-295.65 950.71 -188.37 -591.52c-92.79,58.35 -186.72,113.08 -285.73,159.86zm1234.67 -827.84l0.32 -0.95 -0.15 0 -0.17 0.95zm-1056.19 331.14l-106.57 -334.65 -317.67 0 -212.5 680.26c202.87,-54.35 399.72,-159.05 556.6,-281.31 26.84,-20.92 53.58,-42.37 80.15,-64.31zm5396.05 1468.9l0 -655.84 225.45 0 458.58 655.84 420.15 0 -507.25 -701.95c131.51,-37.58 236.55,-101.19 315.11,-190.86 78.57,-89.67 117.84,-203.67 117.84,-342.01 0,-85.4 -15.37,-162.67 -46.12,-231.85 -30.74,-69.17 -75.15,-128.52 -133.21,-178.05 -58.07,-49.53 -129.8,-87.96 -215.2,-115.28 -85.4,-27.33 -181.89,-40.99 -289.49,-40.99l-704.51 0 0 1801 358.66 0zm0 -937.64l0 -550.81 320.23 0c109.31,0 194.71,22.21 256.2,66.62 61.48,44.4 92.23,112.71 92.23,204.95 0,47.82 -8.97,88.81 -26.9,122.96 -17.94,34.16 -43.13,63.2 -75.58,87.11 -32.46,23.91 -71.31,41.42 -116.56,52.52 -45.27,11.1 -95.22,16.66 -149.87,16.66l-299.74 0zm2549.07 525.18l171.65 412.46 386.84 0 -778.81 -1806.12 -327.92 0 -776.25 1806.12 376.6 0 174.2 -412.46 773.69 0zm-386.84 -973.52l274.12 684.02 -548.24 0 274.13 -684.02zm1193.83 1388.54l358.67 0 0 -617.41 294.61 0c100.76,0 195.13,-13.24 283.09,-39.71 87.96,-26.48 163.96,-65.33 228.01,-116.56 64.05,-51.24 114,-114.43 149.86,-189.58 35.87,-75.15 53.81,-161.4 53.81,-258.76 0,-90.52 -16.23,-172.07 -48.68,-244.66 -32.45,-72.59 -79,-133.64 -139.62,-183.17 -60.64,-49.53 -134.07,-87.54 -220.32,-114 -86.26,-26.47 -181.47,-39.71 -285.65,-39.71l-673.77 0 0 1803.56zm358.67 -1496.13l286.92 0c116.13,0 205.81,24.34 269,73.02 63.2,48.68 94.8,121.68 94.8,219.04 0,90.52 -32.03,162.25 -96.07,215.2 -64.05,52.95 -153.28,79.42 -267.72,79.42l-286.92 0 0 -586.67zm1644.71 -307.42l-356.09 0 0 1801 356.09 0 0 -1801zm371.48 1801l622.53 0c153.71,0 291.63,-22.63 413.75,-67.89 122.11,-45.26 226.3,-108.45 312.54,-189.58 86.26,-81.13 152.43,-176.77 198.55,-286.93 46.12,-110.15 69.17,-230.99 69.17,-362.5 0,-133.21 -23.48,-254.48 -70.45,-363.79 -46.97,-109.3 -113.57,-203.24 -199.83,-281.81 -86.25,-78.56 -190.43,-139.62 -312.54,-183.17 -122.12,-43.55 -257.48,-65.33 -406.06,-65.33l-627.66 0 0 1801zm356.09 -1480.76l330.48 0c87.11,0 165.24,15.8 234.42,47.4 69.17,31.6 128.09,73.87 176.77,126.81 48.68,52.94 85.4,114.42 110.15,184.45 24.77,70.03 37.15,144.32 37.15,222.89 0,87.1 -14.09,166.52 -42.27,238.25 -28.18,71.74 -68.75,132.79 -121.69,183.18 -52.94,50.38 -117.41,89.67 -193.42,117.84 -76,28.18 -163.53,42.27 -262.59,42.27l-269.01 0 0 -1163.09z"/>
    <path class="fil3" d="M6549.12 1792.43c-29.31,0.39 -59.33,-0.01 -89.22,-1.2 -86.1,-3.54 -172.94,-20.72 -258.18,-51.09 -69.36,-24.69 -138.08,-58.24 -204.27,-99.69 -115.76,-72.52 -189.13,-147.08 -208.86,-168.21l46.21 -48.79c0.51,0.42 56.51,45.87 161.4,92.87 96.58,43.27 255.65,96.78 465.08,106.09 7.37,0.08 14.9,0.07 22.38,-0.04 275.65,-3.69 596.65,-127.57 858.71,-331.35 244.14,-190.68 464.91,-414.06 624.57,-631.6 -93.72,-85.5 -129.98,-127.4 -131.59,-129.27l-36.65 -42.64 690.13 -151 -121.69 707.37 -182.43 -151.84c-31.19,35.26 -93.84,103.89 -178.2,185.36 -70.95,68.52 -142.44,131.74 -212.53,187.94 -87.68,70.3 -173.42,129.77 -254.89,176.8 -122.16,79.06 -266.25,168.96 -431.13,236.32 -181.34,74.08 -364.14,111.36 -558.85,113.97z"/>
   </g>
  </g>
 </g>
</svg>
