<?xml version="1.0" encoding="UTF-8"?>
<!DOCTYPE svg PUBLIC "-//W3C//DTD SVG 1.1//EN" "http://www.w3.org/Graphics/SVG/1.1/DTD/svg11.dtd">
<!-- Creator: CorelDRAW 2021 (64-Bit) -->
<svg xmlns="http://www.w3.org/2000/svg" xml:space="preserve" width="201.371mm" height="30.3224mm" version="1.1" style="shape-rendering:geometricPrecision; text-rendering:geometricPrecision; image-rendering:optimizeQuality; fill-rule:evenodd; clip-rule:evenodd"
viewBox="0 0 4236.14 637.88"
 xmlns:xlink="http://www.w3.org/1999/xlink"
 xmlns:xodm="http://www.corel.com/coreldraw/odm/2003">
 <defs>
  <style type="text/css">
   <![CDATA[
    .fil0 {fill:#348CD9}
    .fil2 {fill:#4D4D4D}
    .fil3 {fill:#348CD9;fill-rule:nonzero}
    .fil1 {fill:white;fill-rule:nonzero}
   ]]>
  </style>
 </defs>
 <g id="Layer_x0020_1">
  <metadata id="CorelCorpID_0Corel-Layer"/>
  <g id="_2353525833248">
   <polygon class="fil0" points="1920.46,0 2480.34,0 2519.34,39 2519.34,598.88 2480.34,637.88 1920.46,637.88 1881.46,598.88 1881.46,39 "/>
   <path class="fil1" d="M2010.08 186.27l0.17 350.04 14.02 14.02 75.79 0 14.02 -14.02 0.16 -350.04c-12.79,14.29 -31.38,23.28 -52.07,23.28 -20.7,0 -39.28,-9 -52.09,-23.28zm294.31 350.04l-14.02 14.02 -75.79 0 -14.02 -14.02 0.05 -357.16 -80.78 0c7.71,-11.25 12.25,-24.84 12.25,-39.52 0,-20.72 -9.03,-39.32 -23.35,-52.11l269.62 0 12.37 12.37 0 66.88 -12.37 12.37 -74.22 0 0.25 357.16zm-242.22 -448.78c28.78,0 52.11,23.33 52.11,52.11 0,28.78 -23.33,52.11 -52.11,52.11 -28.79,0 -52.11,-23.33 -52.11,-52.11 0,-28.78 23.32,-52.11 52.11,-52.11z"/>
   <path class="fil2" d="M309.9 400.55c0,16.17 -2.96,30.45 -8.89,42.85 -5.93,12.4 -14.01,22.9 -24.25,31.53 -10.24,8.62 -21.92,15.09 -35.03,19.4 -13.12,4.31 -26.68,6.47 -40.69,6.47 -17.61,0 -33.95,-3.23 -49.04,-9.7 -15.09,-6.47 -28.21,-15.54 -39.34,-27.22 -11.14,-11.68 -19.94,-25.51 -26.41,-41.5 -6.47,-15.99 -9.7,-33.5 -9.7,-52.55 0,-17.61 3.5,-34.31 10.51,-50.12 7.01,-15.81 16.44,-29.64 28.29,-41.5 11.86,-11.86 25.87,-21.2 42.04,-28.02 16.17,-6.83 33.42,-10.24 51.74,-10.24 21.92,0 42.13,3.86 60.63,11.59 18.5,7.73 34.58,17.88 48.24,30.45l0 -80.84c-16.53,-9.7 -34.58,-16.89 -54.16,-21.56 -19.58,-4.67 -39.25,-7.01 -59.02,-7.01 -28.74,0 -55.6,5.12 -80.57,15.36 -24.97,10.24 -46.62,24.25 -64.94,42.04 -18.32,17.79 -32.79,38.63 -43.39,62.52 -10.6,23.89 -15.9,49.67 -15.9,77.34 0,27.67 5.03,53.54 15.09,77.61 10.06,24.07 23.89,45 41.5,62.79 17.61,17.79 38.44,31.71 62.52,41.77 24.07,10.06 49.94,15.09 77.61,15.09 26.95,0 51.74,-4.4 74.37,-13.2 22.64,-8.8 42.13,-21.92 58.48,-39.34 16.35,-17.42 29.01,-39.07 38,-64.94 8.98,-25.87 13.47,-56.05 13.47,-90.54l0 -17.79 -164.92 0 0 59.29 93.78 0zm216.66 158.45l0 -137.97 47.43 0 96.47 137.97 88.39 0 -106.71 -147.67c27.67,-7.91 49.76,-21.29 66.29,-40.15 16.53,-18.86 24.79,-42.85 24.79,-71.95 0,-17.97 -3.23,-34.22 -9.7,-48.78 -6.47,-14.55 -15.81,-27.04 -28.03,-37.46 -12.22,-10.42 -27.31,-18.5 -45.27,-24.25 -17.96,-5.75 -38.27,-8.62 -60.9,-8.62l-148.21 0 0 378.89 75.45 0zm0 -197.26l0 -115.88 67.37 0c22.99,0 40.96,4.67 53.9,14.01 12.94,9.34 19.4,23.71 19.4,43.12 0,10.06 -1.89,18.68 -5.66,25.87 -3.77,7.19 -9.07,13.3 -15.9,18.32 -6.83,5.03 -15,8.71 -24.52,11.05 -9.52,2.34 -20.03,3.5 -31.53,3.5l-63.06 0zm663.45 6.47c0.36,-26.59 -4.49,-51.74 -14.55,-75.45 -10.06,-23.71 -23.98,-44.55 -41.77,-62.52 -17.79,-17.97 -38.8,-32.07 -63.06,-42.31 -24.25,-10.24 -50.93,-15.36 -80.03,-15.36 -29.1,0 -55.78,5.21 -80.04,15.63 -24.25,10.42 -45.36,24.43 -63.33,42.04 -17.97,17.61 -31.98,38.44 -42.04,62.52 -10.06,24.07 -15.09,49.76 -15.09,77.07 0,27.31 5.03,52.91 15.09,76.8 10.06,23.89 23.98,44.73 41.77,62.52 17.79,17.79 38.89,31.8 63.33,42.04 24.43,10.24 51.02,15.36 79.76,15.36 28.74,0 55.33,-5.21 79.77,-15.63 24.43,-10.42 45.54,-24.61 63.33,-42.58 17.78,-17.97 31.71,-38.98 41.77,-63.06 10.06,-24.07 15.09,-49.76 15.09,-77.07zm-76.53 2.16c0,17.61 -3.05,34.13 -9.16,49.58 -6.11,15.45 -14.55,29.01 -25.33,40.69 -10.78,11.68 -23.71,20.93 -38.81,27.76 -15.09,6.83 -31.62,10.24 -49.58,10.24 -18.32,0 -35.03,-3.32 -50.12,-9.97 -15.09,-6.65 -28.02,-15.99 -38.8,-28.03 -10.78,-12.03 -19.22,-25.96 -25.33,-41.77 -6.11,-15.81 -9.16,-32.7 -9.16,-50.66 0,-17.25 2.96,-33.69 8.89,-49.31 5.93,-15.63 14.37,-29.19 25.33,-40.69 10.96,-11.5 23.98,-20.66 39.08,-27.49 15.09,-6.83 31.62,-10.24 49.58,-10.24 18.32,0 35.03,3.5 50.12,10.51 15.09,7.01 28.03,16.35 38.81,28.03 10.78,11.68 19.22,25.33 25.33,40.96 6.11,15.63 9.16,32.43 9.16,50.39zm185.4 -190.25l-79.77 0 42.78 127.8c1.29,0.6 2.54,1.18 3.75,1.72 25.28,11.32 53.11,17.99 80.81,20.53l-47.58 -150.05zm-16.94 187.69l64.36 192.27 67.37 0 60.06 -188.21c-23.6,7.53 -47.6,12.31 -72.33,14.35l-18.45 59.06 -18.39 -58.01c-2,-0.05 -3.99,-0.11 -5.98,-0.19 -19.58,-0.8 -38.89,-4.76 -57.34,-11.33 -6.55,-2.34 -12.99,-4.99 -19.3,-7.94zm235.72 -13.34l66.86 205.61 66.83 0 108.64 -327.32 -37.11 -30.89c-10.11,11.06 -20.64,21.8 -31.39,32.18 -3.92,3.79 -7.89,7.54 -11.9,11.24l-62.2 200.01 -39.63 -124.44c-19.52,12.27 -39.28,23.79 -60.11,33.63zm259.74 -174.16l0.07 -0.2 -0.03 0 -0.04 0.2zm-222.2 69.66l-22.42 -70.4 -66.83 0 -44.7 143.11c42.68,-11.43 84.09,-33.46 117.1,-59.18 5.65,-4.4 11.27,-8.91 16.86,-13.53zm1135.2 309.02l0 -137.97 47.43 0 96.47 137.97 88.39 0 -106.71 -147.67c27.67,-7.91 49.76,-21.29 66.29,-40.15 16.53,-18.86 24.79,-42.85 24.79,-71.95 0,-17.97 -3.23,-34.22 -9.7,-48.78 -6.47,-14.55 -15.81,-27.04 -28.02,-37.46 -12.22,-10.42 -27.31,-18.5 -45.27,-24.25 -17.97,-5.75 -38.27,-8.62 -60.9,-8.62l-148.21 0 0 378.89 75.45 0zm0 -197.26l0 -115.88 67.37 0c23,0 40.96,4.67 53.9,14.01 12.93,9.34 19.4,23.71 19.4,43.12 0,10.06 -1.89,18.68 -5.66,25.87 -3.77,7.19 -9.07,13.3 -15.9,18.32 -6.83,5.03 -15,8.71 -24.52,11.05 -9.52,2.34 -20.03,3.5 -31.53,3.5l-63.06 0zm536.26 110.49l36.11 86.77 81.38 0 -163.84 -379.97 -68.99 0 -163.3 379.97 79.23 0 36.65 -86.77 162.77 0zm-81.38 -204.8l57.67 143.9 -115.34 0 57.67 -143.9zm251.15 292.11l75.46 0 0 -129.89 61.98 0c21.2,0 41.05,-2.79 59.55,-8.35 18.5,-5.57 34.49,-13.74 47.97,-24.52 13.47,-10.78 23.98,-24.07 31.53,-39.88 7.55,-15.81 11.32,-33.95 11.32,-54.44 0,-19.04 -3.41,-36.2 -10.24,-51.47 -6.83,-15.27 -16.62,-28.12 -29.37,-38.53 -12.76,-10.42 -28.21,-18.42 -46.35,-23.98 -18.15,-5.57 -38.18,-8.35 -60.09,-8.35l-141.75 0 0 379.42zm75.46 -314.75l60.36 0c24.43,0 43.3,5.12 56.59,15.36 13.3,10.24 19.94,25.6 19.94,46.08 0,19.04 -6.74,34.13 -20.21,45.27 -13.47,11.14 -32.25,16.71 -56.32,16.71l-60.36 0 0 -123.42zm346.01 -64.67l-74.91 0 0 378.89 74.91 0 0 -378.89zm78.15 378.89l130.96 0c32.34,0 61.35,-4.76 87.04,-14.28 25.69,-9.52 47.61,-22.82 65.75,-39.88 18.15,-17.07 32.07,-37.19 41.77,-60.36 9.7,-23.17 14.55,-48.59 14.55,-76.26 0,-28.02 -4.94,-53.54 -14.82,-76.53 -9.88,-22.99 -23.89,-42.76 -42.04,-59.29 -18.14,-16.53 -40.06,-29.37 -65.75,-38.53 -25.69,-9.16 -54.17,-13.74 -85.42,-13.74l-132.04 0 0 378.89zm74.91 -311.52l69.53 0c18.32,0 34.76,3.32 49.32,9.97 14.55,6.65 26.95,15.54 37.19,26.68 10.24,11.14 17.97,24.07 23.17,38.8 5.21,14.73 7.82,30.36 7.82,46.89 0,18.32 -2.96,35.03 -8.89,50.12 -5.93,15.09 -14.46,27.94 -25.6,38.54 -11.14,10.6 -24.7,18.86 -40.69,24.79 -15.99,5.93 -34.4,8.89 -55.24,8.89l-56.59 0 0 -244.69z"/>
   <path class="fil3" d="M1377.77 377.08c-6.17,0.08 -12.48,-0 -18.77,-0.25 -18.11,-0.74 -36.38,-4.36 -54.31,-10.75 -14.59,-5.19 -29.05,-12.25 -42.97,-20.97 -24.35,-15.26 -39.79,-30.94 -43.94,-35.39l9.72 -10.26c0.11,0.09 11.89,9.65 33.95,19.54 20.32,9.1 53.78,20.36 97.84,22.32 1.55,0.02 3.13,0.01 4.71,-0.01 57.99,-0.78 125.52,-26.84 180.65,-69.71 51.36,-40.11 97.8,-87.11 131.39,-132.87 -19.72,-17.99 -27.35,-26.8 -27.68,-27.2l-7.71 -8.97 145.19 -31.77 -25.6 148.81 -38.38 -31.94c-6.56,7.42 -19.74,21.86 -37.49,39 -14.93,14.41 -29.97,27.72 -44.71,39.54 -18.44,14.79 -36.48,27.3 -53.62,37.19 -25.7,16.63 -56.01,35.55 -90.7,49.72 -38.15,15.58 -76.61,23.43 -117.57,23.98z"/>
  </g>
 </g>
</svg>
