<svg width="337" height="337" viewBox="0 0 337 337" fill="none" xmlns="http://www.w3.org/2000/svg">
<path fill-rule="evenodd" clip-rule="evenodd" d="M29.3792 10H307.62L327 29.3791V307.621L307.62 327H29.3792L10 307.621V29.3791L29.3792 10Z" fill="#348CD9"/>
<path d="M73.9192 102.571L74.0048 276.527L80.972 283.494H118.637L125.603 276.527L125.683 102.571C119.326 109.672 110.091 114.141 99.8044 114.141C89.5178 114.141 80.2831 109.671 73.9192 102.571ZM220.179 276.527L213.211 283.494H175.547L168.58 276.527L168.605 99.0348H128.461C132.292 93.4457 134.549 86.6887 134.549 79.3964C134.549 69.0984 130.06 59.8573 122.947 53.4987H256.939L263.088 59.6482V92.8863L256.939 99.0348H220.055L220.179 276.527ZM99.8044 53.4987C114.105 53.4987 125.701 65.0942 125.701 79.3964C125.701 93.6976 114.106 105.294 99.8044 105.294C85.4969 105.294 73.9066 93.6987 73.9066 79.3964C73.9066 65.0952 85.4958 53.4987 99.8044 53.4987Z" fill="white"/>
</svg>
